/* XPM */
static const char * NewCircuit_xpm[] = {
"23 23 165 2",
"  	c None",
". 	c #D2C9B1",
"+ 	c #AAA38F",
"@ 	c #D3CAB2",
"# 	c #FFFFFF",
"$ 	c #000000",
"% 	c #FFFFFE",
"& 	c #FEFEFD",
"* 	c #FEFEFC",
"= 	c #FEFEFB",
"- 	c #FEFEFA",
"; 	c #FEFEF9",
"> 	c #FEFDF9",
", 	c #D4CBB4",
"' 	c #BBB39E",
") 	c #FEFEFE",
"! 	c #FFFFFD",
"~ 	c #FEFFFC",
"{ 	c #FEFEF8",
"] 	c #FEFDF8",
"^ 	c #F9F8E2",
"/ 	c #BDB59F",
"( 	c #FDFEF9",
"_ 	c #FDFDF8",
": 	c #FDFDF7",
"< 	c #BEB6A0",
"[ 	c #FCFDF9",
"} 	c #FDFDF9",
"| 	c #FDFDF6",
"1 	c #C1B8A2",
"2 	c #D9D9D5",
"3 	c #D5D5D0",
"4 	c #FBFBF6",
"5 	c #FDFEF7",
"6 	c #FDFCF5",
"7 	c #FDFDF5",
"8 	c #F5F5F1",
"9 	c #7B7B79",
"0 	c #FDFDF3",
"a 	c #F4F1E5",
"b 	c #E9E5D5",
"c 	c #E3DDCB",
"d 	c #DFD9C5",
"e 	c #DCD5C0",
"f 	c #E8E7E2",
"g 	c #DDDDD7",
"h 	c #FCFBF4",
"i 	c #FDFCF4",
"j 	c #FDFDF4",
"k 	c #FCFCF2",
"l 	c #FDFCF2",
"m 	c #FCFCF1",
"n 	c #FCFCF0",
"o 	c #FCFCEF",
"p 	c #FCFBEF",
"q 	c #FDFEF8",
"r 	c #FEFDF7",
"s 	c #FDFCF6",
"t 	c #FCFCF3",
"u 	c #CCCCC3",
"v 	c #FCFBF0",
"w 	c #FCFBED",
"x 	c #FEFDF6",
"y 	c #FDFCF3",
"z 	c #FDFCF1",
"A 	c #8F8E89",
"B 	c #8F8E87",
"C 	c #FBFCED",
"D 	c #31312F",
"E 	c #8F8F89",
"F 	c #E3E3D8",
"G 	c #E3E3D6",
"H 	c #6E6E68",
"I 	c #E3E2D5",
"J 	c #8F8E86",
"K 	c #FBFAEC",
"L 	c #313130",
"M 	c #272726",
"N 	c #CBCBC2",
"O 	c #FCFBEC",
"P 	c #FBFAEA",
"Q 	c #FDFDF1",
"R 	c #FBFBEE",
"S 	c #FBFBED",
"T 	c #FCFDF2",
"U 	c #FDFCF0",
"V 	c #CCCBBF",
"W 	c #FBFAE9",
"X 	c #D2C8B0",
"Y 	c #FCFBEE",
"Z 	c #FCFCEE",
"` 	c #8E8E86",
" .	c #41413E",
"..	c #E2E1D3",
"+.	c #6E6D66",
"@.	c #DFDFD0",
"#.	c #8E8E83",
"$.	c #FBFAE8",
"%.	c #D9BD6A",
"&.	c #FDFBF1",
"*.	c #FCFCED",
"=.	c #8E8E85",
"-.	c #FBFAE7",
";.	c #F8F5D9",
">.	c #E4AD06",
",.	c #543F00",
"'.	c #FBFCEE",
").	c #FBFAEB",
"!.	c #CBCBBD",
"~.	c #E2E1D2",
"{.	c #FAFAE8",
"].	c #FBF9E7",
"^.	c #FBF9E6",
"/.	c #F0D87E",
"(.	c #E5B20C",
"_.	c #B88C04",
":.	c #9F9F96",
"<.	c #E3E2D6",
"[.	c #9D9C93",
"}.	c #E2E2D4",
"|.	c #9E9E94",
"1.	c #E2E2D3",
"2.	c #CBCABD",
"3.	c #F1D77F",
"4.	c #E5AF09",
"5.	c #E8BB24",
"6.	c #E7B719",
"7.	c #F6E267",
"8.	c #E4AE07",
"9.	c #E7B30E",
"0.	c #E5AE04",
"a.	c #FBFBEC",
"b.	c #FBFBEA",
"c.	c #FAFAE7",
"d.	c #FAFAE6",
"e.	c #FAF9E6",
"f.	c #F2DE96",
"g.	c #E8B91D",
"h.	c #FBF286",
"i.	c #FFFB96",
"j.	c #F9EA77",
"k.	c #E6B20C",
"l.	c #E5AC00",
"m.	c #FBF9E5",
"n.	c #FAF9E4",
"o.	c #F9F9E3",
"p.	c #EBC547",
"q.	c #F6E063",
"r.	c #F3D854",
"s.	c #E8B91A",
"t.	c #E1A900",
"u.	c #FBFBEB",
"v.	c #FAFAE5",
"w.	c #FAF9E5",
"x.	c #F8F8E0",
"y.	c #E7B415",
"z.	c #E8BA1D",
"A.	c #E1B834",
"B.	c #E6B007",
"C.	c #D7C07B",
"D.	c #E3AF0E",
"E.	c #D6C38C",
"F.	c #C0960C",
"G.	c #A97F00",
"H.	c #574100",
"      . . + . + . . . . . . @ .               ",
"      . # $ % $ & * = - ; > . , '             ",
"      . ) $ ! $ ~ = - ; { ] . ^ . /           ",
"      . ! $ $ $ - > ( ] _ : . ^ ^ . <         ",
"      . * [ $ } - ; ] : | | . ^ ^ ^ . 1       ",
"      . [ 2 $ 3 4 { 5 | 6 7 . . . . . .       ",
"      . 8 9 $ $ $ $ $ $ $ 0 a b c d e . $     ",
"      . _ f $ g h | i j $ k l m n o p . $     ",
"      . q r $ 7 s j i t $ u n v o o w . $     ",
"      . r x $ j i i y z A $ $ $ B C w . $     ",
"      . | 7 D y y t k E F $ G H I J K . $     ",
"      + L M $ l l z m $ p N $ $ O $ P . $     ",
"      . j y l Q m n o $ R S O $ $ $ $ + $     ",
"      . t T z n U v p $ I V $ $ P $ W X $     ",
"      . l z m v Y Z w `  .$ ..+.@.#.$.%.$     ",
"      . &.n o Y *.R O O =.$ $ $ #.-.;.>.,.    ",
"      . n p Y '.w O ).!.$ ~.$.{.].^./.(._.    ",
"      / :.<.[.}.|.1.).$ 2.{.$.3.4.5.6.7.8.9.0.",
"      + R $ a.$ ).$ b.$ $.c.d.e.f.g.h.i.j.k.l.",
"      + S $ ).$ P $ $ $ c.e.m.n.o.p.q.r.s.t.  ",
"      . ).u.b.W W c.-.d.v.w.n.n.x.y.z.A.B.9.  ",
"      . . . . . . . . . . . . . C.D.E.. F.0.  ",
"        $ $ $ $ $ $ $ $ $ $ $ $ G.H.$ $ $ l.l."};
